<?xml version="1.0" standalone="no"?>
<!DOCTYPE svg PUBLIC "-//W3C//DTD SVG 20010904//EN"
 "http://www.w3.org/TR/2001/REC-SVG-20010904/DTD/svg10.dtd">
<svg version="1.0" xmlns="http://www.w3.org/2000/svg"
 width="512.000000pt" height="512.000000pt" viewBox="0 0 512.000000 512.000000"
 preserveAspectRatio="xMidYMid meet">
<metadata>
Created by potrace 1.14, written by Peter Selinger 2001-2017
</metadata>
<g transform="translate(0.000000,512.000000) scale(0.100000,-0.100000)"
fill="#000000" stroke="none">
<path d="M3213 4920 c-29 -12 -87 -90 -130 -177 -20 -40 -39 -73 -42 -73 -4 0
-41 18 -84 39 -93 47 -195 76 -233 67 -45 -12 -81 -56 -93 -117 -36 -182 -5
-394 84 -564 25 -48 87 -134 129 -177 l46 -46 -3 -97 -2 -97 -234 -235 c-129
-128 -237 -230 -241 -226 -4 4 -22 35 -40 68 -122 225 -314 457 -515 622 -241
197 -589 361 -895 422 -152 30 -168 32 -350 36 -148 4 -174 2 -250 -18 -109
-29 -216 -87 -294 -158 -60 -56 -61 -57 -60 -109 0 -46 4 -57 32 -82 18 -15
40 -28 50 -29 9 0 26 -2 37 -4 11 -2 34 -6 51 -10 89 -16 179 -90 223 -184 30
-64 26 48 35 -1181 4 -583 4 -579 42 -760 162 -758 754 -1377 1507 -1574 82
-21 133 -31 258 -51 94 -14 297 -18 1059 -18 769 -1 829 1 880 17 274 90 323
451 83 610 -75 50 -118 56 -385 56 -137 0 -248 2 -248 4 0 2 16 51 35 109 19
58 37 128 40 154 18 135 20 163 19 218 -3 178 -45 346 -125 507 -22 43 -39 80
-39 83 0 3 223 5 495 5 472 0 497 1 549 20 109 41 179 115 213 225 17 53 21
58 72 83 143 70 233 221 226 382 -4 131 -99 248 -291 358 -101 58 -128 60
-224 10 -180 -92 -292 -220 -315 -359 l-5 -36 -107 1 -108 1 -32 62 -33 63 27
6 c199 44 346 172 415 360 27 75 34 226 13 303 -55 211 -279 515 -503 684 -80
60 -159 110 -230 146 -34 17 -62 32 -63 34 0 1 -2 22 -5 47 -23 212 -148 441
-304 555 -49 36 -91 44 -137 25z"/>
</g>
</svg>
